<svg width="50" height="25" viewBox="0 0 50 25" fill="none" xmlns="http://www.w3.org/2000/svg">
<path d="M27.5561 2.7338C28.311 2.7338 28.923 2.12182 28.923 1.3669C28.923 0.611981 28.311 0 27.5561 0C26.8012 0 26.1892 0.611981 26.1892 1.3669C26.1892 2.12182 26.8012 2.7338 27.5561 2.7338Z" fill="#6640E7"/>
<path d="M48.5018 2.46722H46.7325C46.7222 2.46752 46.7121 2.46996 46.7028 2.4744C46.6935 2.47884 46.6852 2.48517 46.6785 2.49298C46.6718 2.5008 46.6668 2.50993 46.6638 2.51979C46.6608 2.52965 46.66 2.54002 46.6612 2.55024L46.5778 3.29153C46.578 3.30739 46.5736 3.32297 46.5652 3.33644C46.5569 3.34991 46.5448 3.36069 46.5305 3.36751C46.5162 3.37434 46.5002 3.37692 46.4844 3.37495C46.4687 3.37298 46.4539 3.36654 46.4417 3.3564C46.1241 3.10099 45.7662 2.81699 45.4059 2.66138C44.8611 2.42586 44.2755 2.29874 43.682 2.28711H43.6058C43.0336 2.28813 42.4667 2.39583 41.934 2.60468C41.3737 2.82244 40.8543 3.2321 40.4324 3.64267C40.0009 4.06399 39.6569 4.56645 39.4203 5.12117C39.0655 5.95934 38.9723 6.88517 39.1529 7.77724C39.3335 8.6693 39.7795 9.48596 40.4324 10.1201C40.8543 10.5307 41.3737 10.9399 41.9349 11.1604C42.4918 11.3773 43.0854 11.4842 43.6829 11.4752C44.2764 11.4636 44.8619 11.3367 45.4068 11.1014C45.7698 10.9458 46.1114 10.6613 46.4303 10.4059C46.4421 10.3966 46.4562 10.3905 46.4711 10.3885C46.4861 10.3864 46.5012 10.3884 46.5152 10.3941C46.529 10.3999 46.541 10.4093 46.5498 10.4214C46.5587 10.4335 46.5641 10.4477 46.5655 10.4626L46.634 11.1336C46.636 11.1542 46.6457 11.1733 46.661 11.1871C46.6764 11.201 46.6964 11.2086 46.717 11.2085H48.5027C48.5247 11.2085 48.5458 11.1997 48.5614 11.1842C48.5769 11.1686 48.5857 11.1475 48.5857 11.1254V2.55114C48.5858 2.54011 48.5836 2.52916 48.5794 2.51895C48.5752 2.50874 48.5691 2.49947 48.5612 2.49166C48.5534 2.48386 48.5442 2.47768 48.534 2.47348C48.5237 2.46928 48.5128 2.46716 48.5018 2.46722ZM43.7414 9.51629C43.2148 9.51486 42.7005 9.35741 42.2633 9.06383C41.8261 8.77026 41.4858 8.35372 41.2852 7.86682C41.0846 7.37992 41.0328 6.8445 41.1363 6.32818C41.2398 5.81185 41.494 5.33778 41.8668 4.96583C42.2395 4.59388 42.7142 4.34074 43.2307 4.23836C43.7473 4.13599 44.2826 4.18898 44.769 4.39065C45.2555 4.59231 45.6713 4.9336 45.9639 5.37142C46.2565 5.80924 46.4128 6.32395 46.4131 6.85055C46.4118 7.55816 46.1297 8.23633 45.6288 8.73614C45.1278 9.23595 44.4491 9.51653 43.7414 9.51629Z" fill="#2E3137"/>
<path d="M36.753 3.55882C36.3479 3.16413 35.8574 2.79121 35.3339 2.58207C34.2718 2.15632 33.0842 2.16872 32.0312 2.61655C31.7903 2.71908 31.5549 2.90054 31.3312 3.0498C31.319 3.05785 31.305 3.06256 31.2904 3.06347C31.2758 3.06437 31.2613 3.06145 31.2482 3.05497C31.2351 3.0485 31.2239 3.03871 31.2158 3.02658C31.2077 3.01445 31.2029 3.0004 31.2019 2.98583L31.1529 2.5367C31.1499 2.51703 31.1399 2.49911 31.1247 2.4862C31.1095 2.47329 31.0903 2.46626 31.0704 2.46639H29.3396C29.3176 2.4665 29.2966 2.47529 29.281 2.49083C29.2655 2.50638 29.2567 2.52742 29.2566 2.54941V11.1237C29.2566 11.1346 29.2587 11.1454 29.2629 11.1555C29.2671 11.1656 29.2732 11.1747 29.2809 11.1824C29.2886 11.1901 29.2978 11.1962 29.3078 11.2004C29.3179 11.2046 29.3287 11.2067 29.3396 11.2067H31.1806C31.2027 11.2067 31.2238 11.198 31.2395 11.1824C31.2551 11.1669 31.2639 11.1458 31.2641 11.1237C31.2641 11.1237 31.2604 5.88522 31.2641 5.87615C31.4002 5.50278 31.5644 5.21878 31.8461 4.94976C32.3383 4.47993 32.9959 4.22304 33.6762 4.23478C34.344 4.24703 34.9011 4.5283 35.3611 5.00601C35.8184 5.48025 36.0687 6.11663 36.0571 6.77531V11.126C36.0571 11.1368 36.0593 11.1474 36.0635 11.1573C36.0678 11.1673 36.0739 11.1762 36.0816 11.1838C36.0894 11.1913 36.0985 11.1972 36.1086 11.2011C36.1186 11.2051 36.1293 11.207 36.1401 11.2067H37.9811C38.0264 11.2067 38.0641 11.1514 38.0641 11.1056V6.62288C38.0579 6.05066 37.9388 5.48529 37.7136 4.95919C37.4885 4.43308 37.1617 3.95658 36.7521 3.557L36.753 3.55882Z" fill="#2E3137"/>
<path d="M4.62241 4.18669C5.02667 4.18599 5.42592 4.27613 5.79066 4.45046C6.15541 4.62478 6.47632 4.87883 6.7297 5.19383C6.74294 5.20991 6.76182 5.22031 6.78248 5.22293C6.80314 5.22554 6.82402 5.22016 6.84084 5.20789L8.26944 4.1944C8.27844 4.18798 8.28606 4.17981 8.29183 4.17038C8.2976 4.16095 8.3014 4.15045 8.30301 4.13951C8.30477 4.12802 8.30414 4.11629 8.30118 4.10505C8.29821 4.09382 8.29297 4.08331 8.28577 4.07418C7.85165 3.51605 7.2962 3.06404 6.6615 2.75238C6.0268 2.44073 5.3295 2.27761 4.62241 2.27539C2.07371 2.27539 0 4.34184 0 6.88147C0 9.4211 2.07371 11.4871 4.62241 11.4871C5.32945 11.4849 6.02671 11.3218 6.66139 11.0102C7.29608 10.6987 7.85156 10.2468 8.28577 9.68876C8.29296 9.67954 8.29819 9.66895 8.30115 9.65764C8.30412 9.64634 8.30475 9.63454 8.30301 9.62298C8.3014 9.61204 8.2976 9.60154 8.29183 9.59211C8.28606 9.58268 8.27844 9.57451 8.26944 9.56809L6.84084 8.5546C6.82389 8.54259 6.80303 8.53741 6.78243 8.5401C6.76183 8.54279 6.743 8.55315 6.7297 8.56911C6.21206 9.20969 5.444 9.51637 4.62241 9.51637C3.13121 9.51637 2.00748 8.36723 2.00748 6.88147C2.00748 5.39571 3.1303 4.18669 4.62241 4.18669Z" fill="#2E3137"/>
<path d="M26.1303 10.3096C27.5617 9.61862 28.2576 8.5026 28.2576 6.89889C28.2576 4.67048 26.7945 2.27148 23.5848 2.27148C21.3074 2.27148 18.8567 3.71959 18.8567 6.89889C18.8567 8.28983 19.3031 9.45349 20.1474 10.2633C20.983 11.0645 22.1716 11.4882 23.5848 11.4882C25.1994 11.4882 26.2392 12.2023 26.2392 13.3986C26.2392 14.5663 24.9327 15.2532 23.5494 15.2532C22.1662 15.2532 20.924 14.5359 20.88 13.2062C20.8797 13.1844 20.8708 13.1635 20.8553 13.1481C20.8398 13.1326 20.8189 13.1239 20.797 13.1237H18.9697C18.9479 13.1234 18.9269 13.1318 18.9113 13.1469C18.8957 13.162 18.8867 13.1827 18.8862 13.2044C18.8812 14.3386 19.2419 15.3049 19.9296 15.9931C20.7408 16.8052 21.9915 17.2343 23.5472 17.2343C25.8155 17.2343 28.2576 16.0339 28.2576 13.3986C28.2576 12.4291 27.8897 11.1325 26.1367 10.462C26.1215 10.4562 26.1084 10.4461 26.0989 10.4329C26.0894 10.4198 26.084 10.4041 26.0833 10.3879C26.0826 10.3716 26.0867 10.3556 26.0951 10.3417C26.1034 10.3277 26.1157 10.3166 26.1303 10.3096ZM23.5825 9.4984C21.9806 9.4984 20.8605 8.4096 20.8605 6.85307C20.8605 5.23484 21.9289 4.18913 23.5825 4.18913C25.1282 4.18913 26.2501 5.30924 26.2501 6.85307C26.2496 8.41051 25.1527 9.4984 23.5821 9.4984H23.5825Z" fill="#2E3137"/>
<path d="M13.2334 2.27539C10.6843 2.27539 8.61102 4.34184 8.61102 6.88147C8.61102 9.4211 10.6843 11.4871 13.2334 11.4871C15.7826 11.4871 17.8558 9.4211 17.8558 6.88147C17.8558 4.34184 15.7821 2.27539 13.2334 2.27539ZM13.2334 9.4887C12.5413 9.4893 11.8773 9.21531 11.3869 8.72686C10.8966 8.23841 10.6201 7.57538 10.618 6.88329C10.618 5.44652 11.7912 4.18987 13.2334 4.18987C14.6756 4.18987 15.8484 5.44652 15.8484 6.88329C15.8458 7.57499 15.5692 8.23748 15.079 8.72553C14.5888 9.21358 13.9251 9.48737 13.2334 9.48688V9.4887Z" fill="#2E3137"/>
<path d="M33.915 17.1194C34.3399 17.2099 34.6813 17.4224 34.939 17.7568C35.1967 18.0841 35.3256 18.4603 35.3256 18.8852C35.3256 19.4982 35.1097 19.9858 34.6778 20.348C34.2529 20.7032 33.6573 20.8809 32.8911 20.8809H29.4744V13.546H32.7762C33.5215 13.546 34.1031 13.7167 34.5211 14.058C34.946 14.3993 35.1584 14.8625 35.1584 15.4476C35.1584 15.8795 35.0435 16.2382 34.8136 16.5238C34.5907 16.8094 34.2912 17.0079 33.915 17.1194ZM31.2611 16.5134H32.4314C32.7239 16.5134 32.9468 16.4507 33.1001 16.3253C33.2603 16.193 33.3404 16.0014 33.3404 15.7506C33.3404 15.4999 33.2603 15.3083 33.1001 15.176C32.9468 15.0436 32.7239 14.9774 32.4314 14.9774H31.2611V16.5134ZM32.5776 19.439C32.8772 19.439 33.107 19.3728 33.2672 19.2404C33.4344 19.1011 33.518 18.9026 33.518 18.6449C33.518 18.3871 33.4309 18.1851 33.2568 18.0389C33.0896 17.8926 32.8563 17.8194 32.5567 17.8194H31.2611V19.439H32.5776ZM47.2 15.8656C47.0677 15.6218 46.8761 15.4372 46.6253 15.3118C46.3815 15.1795 46.0925 15.1133 45.7581 15.1133C45.18 15.1133 44.7167 15.3048 44.3685 15.6879C44.0202 16.0641 43.846 16.5691 43.846 17.203C43.846 17.8787 44.0271 18.408 44.3893 18.7912C44.7585 19.1673 45.2635 19.3554 45.9044 19.3554C46.3432 19.3554 46.7124 19.2439 47.0119 19.021C47.3184 18.7981 47.5413 18.4777 47.6806 18.0598H45.4133V16.7432H49.3002V18.4046C49.1678 18.8504 48.9414 19.2648 48.621 19.6479C48.3075 20.031 47.907 20.341 47.4194 20.5779C46.9318 20.8147 46.3815 20.9331 45.7686 20.9331C45.0441 20.9331 44.3963 20.7764 43.8251 20.4629C43.2609 20.1425 42.8186 19.7002 42.4982 19.136C42.1847 18.5717 42.028 17.9274 42.028 17.203C42.028 16.4786 42.1847 15.8342 42.4982 15.27C42.8186 14.6988 43.2609 14.2565 43.8251 13.943C44.3893 13.6226 45.0337 13.4624 45.7581 13.4624C46.6358 13.4624 47.3741 13.6749 47.9732 14.0998C48.5792 14.5247 48.9797 15.1133 49.1748 15.8656H47.2Z" fill="#2E3137"/>
<path d="M36.1216 19.4494C36.3584 19.2613 36.4664 19.1743 36.4455 19.1882C37.1281 18.624 37.6645 18.1608 38.0545 17.7985C38.4516 17.4363 38.7859 17.0567 39.0576 16.6597C39.3292 16.2626 39.4651 15.876 39.4651 15.4999C39.4651 15.2143 39.3989 14.9914 39.2666 14.8312C39.1342 14.671 38.9357 14.5909 38.671 14.5909C38.4063 14.5909 38.1973 14.6919 38.0441 14.8939C37.8978 15.0889 37.8247 15.3675 37.8247 15.7297H36.1007C36.1146 15.1377 36.24 14.6431 36.4768 14.2461C36.7206 13.849 37.0375 13.5565 37.4276 13.3684C37.8247 13.1803 38.2635 13.0863 38.7441 13.0863C39.573 13.0863 40.1965 13.2987 40.6144 13.7236C41.0393 14.1485 41.2518 14.7023 41.2518 15.3849C41.2518 16.1303 40.9975 16.8234 40.489 17.4642C39.9805 18.0981 39.3327 18.718 38.5456 19.324H41.3667V20.7764H36.1216V19.4494Z" fill="#8725FF"/>
</svg>
